<svg xmlns="http://www.w3.org/2000/svg" width="64" height="64" id="dollar"><circle cx="31.5" cy="32.5" r="27.491" fill="#FFF" stroke="#000" stroke-width="2"></circle><circle cx="32.26" cy="32.5" r="25.781" fill="#FAA73E"></circle><path fill="none" stroke="#FCE69D" stroke-linecap="round" d="M55.774 28.04c.334 1.349.584 2.792.726 4.333m-8.058-17.176a26.327 26.327 0 0 1 7.022 10.782m-46.714.954a28.987 28.987 0 0 0-.725 4.334m8.42-17.4a26.334 26.334 0 0 0-7.022 10.782"></path><path fill="none" stroke="#000" stroke-width="2" d="M40.991 21.618s-5.172-2.107-10.344-1.341c-5.172.767-5.591 4.119-5.591 6.13 0 2.012 2.824 4.885 6.847 5.748 4.023.861 9.279 2.106 8.609 6.513-.67 4.405-4.022 5.459-7.661 5.459-3.641 0-8.524-2.202-9.674-3.353M32.754 13.956v36.62"></path></svg>